<?xml version="1.0" encoding="UTF-8" standalone="no"?>
<svg
   xmlns:dc="http://purl.org/dc/elements/1.1/"
   xmlns:cc="http://creativecommons.org/ns#"
   xmlns:rdf="http://www.w3.org/1999/02/22-rdf-syntax-ns#"
   xmlns:svg="http://www.w3.org/2000/svg"
   xmlns="http://www.w3.org/2000/svg"
   viewBox="0 0 346.66666 52"
   xml:space="preserve"
   id="svg2"
   version="1.1">
   <metadata
     id="metadata8"><rdf:RDF><cc:Work
         rdf:about=""><dc:format>image/svg+xml</dc:format><dc:type
           rdf:resource="http://purl.org/dc/dcmitype/StillImage" /></cc:Work></rdf:RDF></metadata><defs
     id="defs6" /><g
     transform="matrix(1.3333333,0,0,-1.3333333,0,52)"
     id="g10"
     ><g
       transform="scale(0.1)"
       id="g12">
       <path
         id="path14"
         style="fill-opacity:1;fill-rule:evenodd;stroke:none"
         d="m 708.699,71.293 h 27.36 c 11.875,0 21.593,9.7187 21.593,21.5937 v 82.6953 c 0,12.816 -10.636,18.977 -23.3,20.504 l -82.586,9.949 -55.184,96.262 -1.016,-0.68 c -7.507,9.992 -18.488,16.512 -32.058,16.512 h -98.453 c -6.867,0 -12.481,-5.613 -12.481,-12.481 V 146.176 H 151.246 c -5.117,0 -9.301,-4.184 -9.301,-9.301 V 80.5938 c 0,-5.1172 4.184,-9.3008 9.301,-9.3008 h 42.609 c 0,-36.7578 29.801,-66.56253 66.567,-66.56253 36.758,0 66.558,29.80473 66.558,66.56253 h 248.594 c 0,-36.7578 29.801,-66.56253 66.563,-66.56253 36.758,0 66.562,29.80473 66.562,66.56253 z m -448.277,37.441 c 20.676,0 37.437,-16.7613 37.437,-37.441 0,-20.6797 -16.761,-37.4414 -37.437,-37.4414 -20.684,0 -37.445,16.7617 -37.445,37.4414 0,20.6797 16.761,37.441 37.445,37.441 z m 239.301,170.567 h 57.125 c 4.961,0 13.929,-6.84 16.371,-11.09 l 32.875,-57.348 H 499.723 Z M 642.137,108.734 c 20.679,0 37.437,-16.7613 37.437,-37.441 0,-20.6797 -16.758,-37.4414 -37.437,-37.4414 -20.684,0 -37.446,16.7617 -37.446,37.4414 0,20.6797 16.762,37.441 37.446,37.441" />
       <path
         id="path16"
         style="fill-opacity:1;fill-rule:evenodd;stroke:none"
         d="m 98.957,337.543 c 20.68,0 37.441,-16.762 37.441,-37.441 0,-20.676 -16.761,-37.442 -37.441,-37.442 -20.6757,0 -37.4414,16.766 -37.4414,37.442 0,20.679 16.7657,37.441 37.4414,37.441" />
        <path
         id="path18"
         
         style="fill-opacity:1;fill-rule:evenodd;stroke:none"
         d="m 159.863,270.98 h 52.918 c 3.754,0 6.824,-3.066 6.824,-6.824 v -94.515 c 0,-3.758 -3.07,-6.825 -6.824,-6.825 h -52.918 c -3.754,0 -6.82,3.067 -6.82,6.825 v 14.238 c 1.363,-0.172 2.75,-0.262 4.16,-0.262 18.379,0 33.277,14.903 33.277,33.281 0,18.383 -14.898,33.282 -33.277,33.282 -1.41,0 -2.797,-0.09 -4.16,-0.258 v 14.234 c 0,3.758 3.066,6.824 6.82,6.824" />
         <path
         id="path20"
         
         style="fill-opacity:1;fill-rule:evenodd;stroke:none"
         d="m 331.391,384.695 h 92.597 c 6.575,0 11.946,-5.367 11.946,-11.941 V 174.758 c 0,-6.567 -5.371,-11.942 -11.946,-11.942 h -92.597 c -6.571,0 -11.946,5.375 -11.946,11.942 v 197.996 c 0,6.574 5.375,11.941 11.946,11.941" />
         <path
         id="path22"
         
         style="fill-opacity:1;fill-rule:evenodd;stroke:none"
         d="m 243.066,270.98 h 52.918 c 3.754,0 6.825,-3.066 6.825,-6.824 v -94.515 c 0,-3.758 -3.071,-6.825 -6.825,-6.825 h -52.918 c -3.753,0 -6.824,3.067 -6.824,6.825 v 94.515 c 0,3.758 3.071,6.824 6.824,6.824" />
         <path
         id="path24"
         
         style="fill-opacity:1;fill-rule:evenodd;stroke:none"
         d="m 173.902,293.824 v 57.004 c 0,4.043 3.305,7.348 7.348,7.348 h 93.465 c 4.047,0 7.351,-3.305 7.351,-7.348 v -57.004 c 0,-4.047 -3.304,-7.347 -7.351,-7.347 H 181.25 c -4.043,0 -7.348,3.3 -7.348,7.347" />
         <path
         id="path26"
         
         style="fill-opacity:1;fill-rule:evenodd;stroke:none"
         d="m 4.65234,26.0938 v -3.8829 c 0,-7.539 8.46486,-16.09762 16.08596,-16.09762 14.043,0 16.3476,5.70702 21.2383,17.05082 1.8047,4.1797 3.3203,8 4.9961,12.207 1.7851,4.4883 3.3671,8.1406 5.1484,12.6133 5.5937,14.0312 9.2227,23.125 14.0352,37.5859 1.082,3.25 3.7109,10.8945 3.9531,13.8047 2.4687,-0.6562 4.5195,-3.7539 6.0234,-5.6328 0.7852,-0.9844 1.3008,-1.3477 2.168,-2.2734 9.6328,-10.3086 7.2226,-9.3282 9.1719,-24.125 1.3476,-10.211 5.082,-45.4454 7.4179,-50.8672 0.6758,-1.5625 2.2891,-3.793 3.3633,-4.961 3.0001,-3.28122 7.2501,-5.08201 11.6521,-5.40232 h 2.965 c 8.469,0.64063 16.594,6.74222 16.594,18.32032 l -2.121,18.4141 c -1.61,11.2226 -4.946,45.9101 -8.172,54 -2.168,5.4293 -8.785,13.4413 -13.152,17.9253 l -16.9692,19.106 c -0.8985,1.133 -1.6641,1.789 -2.7188,2.824 -2.0586,2.027 -2.9062,3.934 -5.125,5.422 0.7618,1.586 1.6446,6.035 2.1094,7.883 l 6.4258,25.207 c 1.4141,5.715 3.1836,11.164 4.6562,16.437 l 5.1133,15.977 c 6.7733,-1.574 9.3403,-7.535 25.4143,-9.539 l 34.496,-1.008 c 5.871,0 10.418,1.824 13.711,4.598 3.719,3.129 5.832,7.492 6.258,12.031 v 3.414 c -0.379,4.078 -2.129,8.094 -5.317,11.277 -11.242,11.25 -36.636,0.86 -49.605,7.539 l -24.7698,12.407 c -6.2109,3.132 -20.8086,9.25 -27.9258,9.25 h -0.6836 -2.7929 c -2.8477,-0.051 -4.9571,-0.36 -8.3672,-2.028 -4.8164,-2.347 -7.668,-4.57 -10.9102,-9.062 -1.2929,-1.789 -2.414,-4.211 -3.5078,-6.485 -6.3594,-13.222 -14.0937,-49.687 -16.1445,-63.789 -2.0547,-14.179 1.1797,-28 9.5937,-39.195 2.0508,-2.73 3.043,-2.738 2.1211,-6.328 C 32.3828,96.9063 29.4023,88.6055 15.8203,55.4453 14.2773,51.6719 4.65234,29.6875 4.65234,26.0938" />
         <path
         id="path28"
         
         style="fill-opacity:1;fill-rule:nonzero;stroke:none"
         d="m 1096.47,86.9297 c 0,-25.4688 -7.86,-45.543 -23.59,-60.2031 -15.75,-14.6563 -37.63,-22.00004 -65.67,-22.00004 -33.616,0 -61.761,8.88674 -84.448,26.65234 l 23.437,34.0469 c 7.281,-5.7891 15.899,-10.4922 25.852,-14.1367 9.957,-3.6328 20.496,-5.4571 31.629,-5.4571 30.18,0 45.27,13.7032 45.27,41.0977 v 2.8945 c -12.84,-10.4922 -29.33,-15.7304 -49.454,-15.7304 -18.625,0 -34.988,3.8984 -49.125,11.7109 -14.125,7.8164 -24.933,18.4723 -32.43,31.9573 -7.492,13.488 -11.242,28.359 -11.242,44.625 0,16.484 3.75,31.422 11.242,44.793 7.497,13.383 18.254,24.043 32.278,31.957 14.019,7.914 30.449,11.879 49.277,11.879 20.124,0 36.614,-5.239 49.454,-15.731 v 12.52 h 47.52 z m -94.08,27.6213 c 8.99,0 17.18,2.09 24.56,6.258 7.39,4.168 13.22,9.957 17.5,17.336 4.28,7.394 6.43,15.472 6.43,24.242 0,9 -2.15,17.133 -6.43,24.41 -4.28,7.277 -10.11,13 -17.5,17.172 -7.38,4.179 -15.57,6.269 -24.56,6.269 -14.558,0 -26.273,-4.55 -35.156,-13.652 -8.886,-9.102 -13.336,-20.496 -13.336,-34.199 0,-14.121 4.336,-25.633 13.016,-34.516 8.668,-8.887 20.496,-13.32 35.476,-13.32 z m 228.94,-47.5197 c -17.33,0 -33.35,4.1171 -48,12.3515 -14.66,8.2461 -26.28,19.4258 -34.84,33.5622 -8.57,14.125 -12.85,29.532 -12.85,46.231 0,16.48 4.28,31.793 12.85,45.926 8.56,14.121 20.18,25.312 34.84,33.55 14.65,8.246 30.67,12.364 48,12.364 17.33,0 33.4,-4.118 48.17,-12.364 14.77,-8.238 26.49,-19.429 35.15,-33.55 8.67,-14.133 13.01,-29.446 13.01,-45.926 0,-16.699 -4.34,-32.106 -13.01,-46.231 -8.66,-14.1364 -20.38,-25.3161 -35.15,-33.5622 -14.77,-8.2344 -30.84,-12.3515 -48.17,-12.3515 z m 0,141.9217 c -8.77,0 -16.92,-2.195 -24.4,-6.578 -7.49,-4.398 -13.38,-10.387 -17.66,-17.984 -4.29,-7.598 -6.43,-16.012 -6.43,-25.215 0,-9.625 2.09,-18.238 6.27,-25.852 4.17,-7.594 9.95,-13.586 17.34,-17.972 7.38,-4.395 15.68,-6.586 24.88,-6.586 8.99,0 17.18,2.191 24.56,6.586 7.4,4.386 13.22,10.429 17.5,18.14 4.29,7.711 6.43,16.266 6.43,25.684 0,9.203 -2.14,17.617 -6.43,25.215 -4.28,7.597 -10.1,13.586 -17.5,17.984 -7.38,4.383 -15.57,6.578 -24.56,6.578 z m 343.9,42.063 c 24.62,0 42.98,-6.641 55.07,-19.911 12.09,-13.269 18.15,-31.789 18.15,-55.55 V 71.1992 h -48.49 V 175.555 c 0,12.633 -3.16,21.734 -9.47,27.293 -6.32,5.57 -14.61,8.347 -24.89,8.347 -8.56,0 -16.27,-3.215 -23.11,-9.625 -6.86,-6.422 -10.39,-17.129 -10.61,-32.121 V 71.1992 h -48.47 V 175.555 c 0,12.633 -3.16,21.734 -9.48,27.293 -6.32,5.57 -14.5,8.347 -24.57,8.347 -9.2,0 -17.17,-3.418 -23.91,-10.273 -6.75,-6.848 -10.13,-18.942 -10.13,-36.277 l -0.31,-93.4458 h -47.85 V 247.805 h 47.85 v -16.063 c 6.2,5.571 13.7,10.172 22.47,13.817 8.78,3.632 16.81,5.457 24.09,5.457 24.83,0 43.77,-8.032 56.83,-24.078 6.64,7.48 14.89,13.371 24.73,17.656 9.85,4.277 20.54,6.422 32.1,6.422 z M 1785.55,67.0313 c -17.34,0 -33.34,4.1171 -48,12.3515 -14.66,8.2461 -26.27,19.4258 -34.84,33.5622 -8.56,14.125 -12.85,29.532 -12.85,46.231 0,16.48 4.29,31.793 12.85,45.926 8.57,14.121 20.18,25.312 34.84,33.55 14.66,8.246 30.66,12.364 48,12.364 17.34,0 33.4,-4.118 48.17,-12.364 14.77,-8.238 26.49,-19.429 35.16,-33.55 8.66,-14.133 13,-29.446 13,-45.926 0,-16.699 -4.34,-32.106 -13,-46.231 -8.67,-14.1364 -20.39,-25.3161 -35.16,-33.5622 -14.77,-8.2344 -30.83,-12.3515 -48.17,-12.3515 z m 0,141.9217 c -8.77,0 -16.91,-2.195 -24.39,-6.578 -7.5,-4.398 -13.39,-10.387 -17.67,-17.984 -4.28,-7.598 -6.43,-16.012 -6.43,-25.215 0,-9.625 2.1,-18.238 6.28,-25.852 4.16,-7.594 9.94,-13.586 17.33,-17.972 7.38,-4.395 15.68,-6.586 24.88,-6.586 8.99,0 17.18,2.191 24.57,6.586 7.39,4.386 13.21,10.429 17.5,18.14 4.28,7.711 6.42,16.266 6.42,25.684 0,9.203 -2.14,17.617 -6.42,25.215 -4.29,7.597 -10.11,13.586 -17.5,17.984 -7.39,4.383 -15.58,6.578 -24.57,6.578 z m 106.3,38.215 h 53.3 l 41.1,-86.387 41.09,86.387 h 53.63 L 1986.25,63.4883 Z m 266.83,45.273 c 0,-7.277 -2.57,-13.433 -7.71,-18.472 -5.14,-5.031 -11.34,-7.543 -18.62,-7.543 -7.49,0 -13.87,2.512 -19.11,7.543 -5.24,5.039 -7.86,11.195 -7.86,18.472 0,7.063 2.62,13.106 7.86,18.137 5.24,5.035 11.62,7.547 19.11,7.547 7.28,0 13.48,-2.512 18.62,-7.547 5.14,-5.031 7.71,-11.074 7.71,-18.137 z m -50.41,-44.957 h 48.16 V 71.1992 h -48.16 z m 190.41,3.532 c 24.39,0 42.12,-6.524 53.14,-19.594 11.03,-13.051 16.54,-31.672 16.54,-55.867 V 71.1992 h -49.13 V 175.555 c 0,23.761 -11.35,35.64 -34.03,35.64 -8.79,0 -16.7,-3.48 -23.78,-10.425 -7.06,-6.961 -10.38,-19.008 -9.95,-36.125 V 71.1992 h -47.84 V 247.805 h 47.84 v -15.731 c 5.78,5.774 13.06,10.375 21.83,13.805 8.79,3.43 17.24,5.137 25.38,5.137 z M 2596.66,86.9297 c 0,-25.4688 -7.87,-45.543 -23.6,-60.2031 -15.74,-14.6563 -37.62,-22.00004 -65.67,-22.00004 -33.61,0 -61.76,8.88674 -84.44,26.65234 l 23.44,34.0469 c 7.27,-5.7891 15.89,-10.4922 25.85,-14.1367 9.95,-3.6328 20.49,-5.4571 31.62,-5.4571 30.18,0 45.28,13.7032 45.28,41.0977 v 2.8945 c -12.85,-10.4922 -29.33,-15.7304 -49.46,-15.7304 -18.62,0 -34.99,3.8984 -49.13,11.7109 -14.12,7.8164 -24.93,18.4723 -32.42,31.9573 -7.5,13.488 -11.25,28.359 -11.25,44.625 0,16.484 3.75,31.422 11.25,44.793 7.49,13.383 18.25,24.043 32.27,31.957 14.02,7.914 30.46,11.879 49.28,11.879 20.13,0 36.61,-5.239 49.46,-15.731 v 12.52 h 47.52 z m -94.09,27.6213 c 8.99,0 17.19,2.09 24.57,6.258 7.39,4.168 13.22,9.957 17.5,17.336 4.28,7.394 6.42,15.472 6.42,24.242 0,9 -2.14,17.133 -6.42,24.41 -4.28,7.277 -10.11,13 -17.5,17.172 -7.38,4.179 -15.58,6.269 -24.57,6.269 -14.55,0 -26.27,-4.55 -35.15,-13.652 -8.88,-9.102 -13.33,-20.496 -13.33,-34.199 0,-14.121 4.33,-25.633 13.01,-34.516 8.67,-8.887 20.5,-13.32 35.47,-13.32" /></g></g></svg>