<svg width="347" height="52" viewBox="0 0 347 52" fill="none" xmlns="http://www.w3.org/2000/svg">
<g clip-path="url(#clip0)">
<path fill-rule="evenodd" clip-rule="evenodd" d="M94.4932 42.4941H98.1412C99.7246 42.4941 101.02 41.1983 101.02 39.615V28.5889C101.02 26.8801 99.6022 26.0587 97.9136 25.8551L86.9022 24.5285L79.5443 11.6936L79.4088 11.7843C78.4079 10.452 76.9438 9.58267 75.1344 9.58267H62.0074C61.0918 9.58267 60.3432 10.3311 60.3432 11.2468V32.5097H20.1662C19.4839 32.5097 18.926 33.0676 18.926 33.7499V41.254C18.926 41.9363 19.4839 42.4941 20.1662 42.4941H25.8474C25.8474 47.3952 29.8208 51.3691 34.723 51.3691C39.624 51.3691 43.5974 47.3952 43.5974 42.4941H76.7432C76.7432 47.3952 80.7167 51.3691 85.6183 51.3691C90.5194 51.3691 94.4932 47.3952 94.4932 42.4941V42.4941ZM34.723 37.502C37.4798 37.502 39.7146 39.7368 39.7146 42.4941C39.7146 45.2514 37.4798 47.4863 34.723 47.4863C31.9651 47.4863 29.7303 45.2514 29.7303 42.4941C29.7303 39.7368 31.9651 37.502 34.723 37.502ZM66.6298 14.7597H74.2464C74.9079 14.7597 76.1036 15.6717 76.4292 16.2384L80.8126 23.8848H66.6298V14.7597ZM85.6183 37.502C88.3755 37.502 90.6099 39.7368 90.6099 42.4941C90.6099 45.2514 88.3755 47.4863 85.6183 47.4863C82.8604 47.4863 80.6255 45.2514 80.6255 42.4941C80.6255 39.7368 82.8604 37.502 85.6183 37.502Z" fill="#E95644"/>
<path fill-rule="evenodd" clip-rule="evenodd" d="M13.1943 6.99412C15.9517 6.99412 18.1865 9.22905 18.1865 11.9863C18.1865 14.7431 15.9517 16.9785 13.1943 16.9785C10.4376 16.9785 8.20215 14.7431 8.20215 11.9863C8.20215 9.22905 10.4376 6.99412 13.1943 6.99412Z" fill="#E95644"/>
<path fill-rule="evenodd" clip-rule="evenodd" d="M21.3151 15.8691H28.3708C28.8714 15.8691 29.2807 16.2779 29.2807 16.779V29.381C29.2807 29.8821 28.8714 30.291 28.3708 30.291H21.3151C20.8146 30.291 20.4058 29.8821 20.4058 29.381V27.4826C20.5875 27.5055 20.7724 27.5175 20.9604 27.5175C23.411 27.5175 25.3974 25.5305 25.3974 23.0801C25.3974 20.629 23.411 18.6425 20.9604 18.6425C20.7724 18.6425 20.5875 18.6545 20.4058 18.6769V16.779C20.4058 16.2779 20.8146 15.8691 21.3151 15.8691" fill="#E95644"/>
<path fill-rule="evenodd" clip-rule="evenodd" d="M44.1856 0.707149H56.5318C57.4085 0.707149 58.1246 1.42275 58.1246 2.29928V28.6987C58.1246 29.5743 57.4085 30.291 56.5318 30.291H44.1856C43.3094 30.291 42.5928 29.5743 42.5928 28.6987V2.29928C42.5928 1.42275 43.3094 0.707149 44.1856 0.707149Z" fill="#E95644"/>
<path fill-rule="evenodd" clip-rule="evenodd" d="M32.4089 15.8691H39.4646C39.9652 15.8691 40.3746 16.2779 40.3746 16.779V29.381C40.3746 29.8821 39.9652 30.291 39.4646 30.291H32.4089C31.9085 30.291 31.499 29.8821 31.499 29.381V16.779C31.499 16.2779 31.9085 15.8691 32.4089 15.8691" fill="#E95644"/>
<path fill-rule="evenodd" clip-rule="evenodd" d="M23.187 12.8231V5.2226C23.187 4.68353 23.6277 4.24287 24.1667 4.24287H36.6287C37.1683 4.24287 37.6089 4.68353 37.6089 5.2226V12.8231C37.6089 13.3627 37.1683 13.8027 36.6287 13.8027H24.1667C23.6277 13.8027 23.187 13.3627 23.187 12.8231Z" fill="#E95644"/>
<path fill-rule="evenodd" clip-rule="evenodd" d="M0.620361 48.5205V49.0382C0.620361 50.0434 1.74901 51.1846 2.76516 51.1846C4.63756 51.1846 4.94484 50.4236 5.59693 48.9111C5.83756 48.3538 6.03964 47.8445 6.26308 47.2835C6.50109 46.6851 6.71202 46.1981 6.94953 45.6018C7.69536 43.7309 8.17922 42.5184 8.82089 40.5903C8.96516 40.157 9.31568 39.1377 9.34797 38.7497C9.67713 38.8372 9.95057 39.2502 10.1511 39.5007C10.2558 39.632 10.3245 39.6804 10.4402 39.8038C11.7245 41.1783 11.4032 41.0476 11.6631 43.0205C11.8428 44.382 12.3407 49.0799 12.6521 49.8028C12.7422 50.0111 12.9573 50.3085 13.1006 50.4643C13.5006 50.9018 14.0672 51.1419 14.6542 51.1846H15.0495C16.1787 51.0992 17.262 50.2856 17.262 48.7419L16.9792 46.2866C16.7646 44.7903 16.3198 40.1653 15.8896 39.0866C15.6006 38.3627 14.7183 37.2945 14.136 36.6966L11.8735 34.1491C11.7537 33.9981 11.6516 33.9106 11.511 33.7726C11.2365 33.5023 11.1235 33.2481 10.8276 33.0497C10.9292 32.8382 11.0469 32.245 11.1089 31.9986L11.9657 28.6377C12.1542 27.8757 12.3902 27.1491 12.5865 26.4461L13.2683 24.3158C14.1714 24.5257 14.5136 25.3205 16.6568 25.5877L21.2563 25.7221C22.0391 25.7221 22.6454 25.4789 23.0844 25.109C23.5803 24.6918 23.862 24.1101 23.9188 23.5049V23.0497C23.8683 22.5059 23.635 21.9705 23.2099 21.5461C21.711 20.0461 18.3251 21.4314 16.5959 20.5409L13.2933 18.8866C12.4652 18.469 10.5188 17.6533 9.56984 17.6533H9.47869H9.1063C8.72661 17.6601 8.44536 17.7013 7.99068 17.9237C7.34849 18.2366 6.96828 18.533 6.53598 19.1319C6.3636 19.3705 6.21412 19.6934 6.06828 19.9966C5.22036 21.7595 4.18912 26.6215 3.91568 28.5018C3.64172 30.3923 4.07297 32.2351 5.19484 33.7278C5.46828 34.0918 5.60057 34.0929 5.47765 34.5715C4.31776 39.0788 3.92036 40.1856 2.10942 44.607C1.90369 45.1101 0.620361 48.0413 0.620361 48.5205Z" fill="#E95644"/>
<path d="M146.196 40.4092C146.196 43.8051 145.148 46.4816 143.051 48.4363C140.951 50.3905 138.033 51.3696 134.295 51.3696C129.813 51.3696 126.06 50.1847 123.035 47.816L126.16 43.2764C127.131 44.0483 128.28 44.6754 129.607 45.1613C130.935 45.6457 132.34 45.8889 133.824 45.8889C137.848 45.8889 139.86 44.0618 139.86 40.4092V40.0233C138.148 41.4222 135.949 42.1207 133.266 42.1207C130.783 42.1207 128.601 41.6009 126.716 40.5592C124.833 39.517 123.392 38.0962 122.392 36.2982C121.393 34.4998 120.893 32.517 120.893 30.3482C120.893 28.1504 121.393 26.1586 122.392 24.3758C123.392 22.5914 124.826 21.1701 126.696 20.1149C128.565 19.0597 130.756 18.531 133.266 18.531C135.949 18.531 138.148 19.2296 139.86 20.6285V18.9592H146.196V40.4092ZM133.652 36.7264C134.851 36.7264 135.943 36.4477 136.927 35.892C137.912 35.3362 138.689 34.5644 139.26 33.5805C139.831 32.5946 140.117 31.5176 140.117 30.3482C140.117 29.1482 139.831 28.0638 139.26 27.0936C138.689 26.1233 137.912 25.3602 136.927 24.804C135.943 24.2468 134.851 23.9681 133.652 23.9681C131.711 23.9681 130.149 24.5748 128.965 25.7884C127.78 27.002 127.187 28.5212 127.187 30.3482C127.187 32.231 127.765 33.766 128.922 34.9504C130.078 36.1353 131.655 36.7264 133.652 36.7264V36.7264ZM164.177 43.0623C161.867 43.0623 159.731 42.5134 157.777 41.4155C155.823 40.316 154.273 38.8254 153.132 36.9405C151.989 35.0572 151.419 33.0029 151.419 30.7764C151.419 28.579 151.989 26.5373 153.132 24.6529C154.273 22.7701 155.823 21.278 157.777 20.1796C159.731 19.0801 161.867 18.531 164.177 18.531C166.488 18.531 168.631 19.0801 170.6 20.1796C172.569 21.278 174.132 22.7701 175.287 24.6529C176.443 26.5373 177.021 28.579 177.021 30.7764C177.021 33.0029 176.443 35.0572 175.287 36.9405C174.132 38.8254 172.569 40.316 170.6 41.4155C168.631 42.5134 166.488 43.0623 164.177 43.0623ZM164.177 24.1394C163.008 24.1394 161.921 24.4321 160.924 25.0165C159.925 25.6029 159.14 26.4014 158.569 27.4144C157.997 28.4274 157.712 29.5493 157.712 30.7764C157.712 32.0597 157.991 33.2081 158.548 34.2233C159.104 35.2358 159.875 36.0348 160.86 36.6196C161.844 37.2056 162.951 37.4977 164.177 37.4977C165.376 37.4977 166.468 37.2056 167.452 36.6196C168.439 36.0348 169.215 35.229 169.785 34.2009C170.357 33.1728 170.643 32.0321 170.643 30.7764C170.643 29.5493 170.357 28.4274 169.785 27.4144C169.215 26.4014 168.439 25.6029 167.452 25.0165C166.468 24.4321 165.376 24.1394 164.177 24.1394V24.1394ZM210.031 18.531C213.313 18.531 215.761 19.4165 217.373 21.1858C218.985 22.955 219.793 25.4244 219.793 28.5925V42.5066H213.328V28.5925C213.328 26.9081 212.907 25.6946 212.065 24.9534C211.223 24.2108 210.117 23.8405 208.747 23.8405C207.605 23.8405 206.577 24.2692 205.665 25.1238C204.751 25.9801 204.28 27.4077 204.251 29.4066V42.5066H197.788V28.5925C197.788 26.9081 197.367 25.6946 196.524 24.9534C195.681 24.2108 194.591 23.8405 193.248 23.8405C192.021 23.8405 190.959 24.2962 190.06 25.2102C189.16 26.1233 188.709 27.7358 188.709 30.0472L188.668 42.5066H182.288V18.9592H188.668V21.1009C189.495 20.3581 190.495 19.7446 191.664 19.2586C192.835 18.7744 193.905 18.531 194.876 18.531C198.187 18.531 200.712 19.602 202.453 21.7414C203.339 20.7441 204.439 19.9586 205.751 19.3873C207.064 18.817 208.489 18.531 210.031 18.531V18.531ZM238.073 43.0623C235.761 43.0623 233.628 42.5134 231.673 41.4155C229.719 40.316 228.171 38.8254 227.028 36.9405C225.887 35.0572 225.315 33.0029 225.315 30.7764C225.315 28.579 225.887 26.5373 227.028 24.6529C228.171 22.7701 229.719 21.278 231.673 20.1796C233.628 19.0801 235.761 18.531 238.073 18.531C240.385 18.531 242.527 19.0801 244.496 20.1796C246.465 21.278 248.028 22.7701 249.184 24.6529C250.339 26.5373 250.917 28.579 250.917 30.7764C250.917 33.0029 250.339 35.0572 249.184 36.9405C248.028 38.8254 246.465 40.316 244.496 41.4155C242.527 42.5134 240.385 43.0623 238.073 43.0623ZM238.073 24.1394C236.904 24.1394 235.819 24.4321 234.821 25.0165C233.821 25.6029 233.036 26.4014 232.465 27.4144C231.895 28.4274 231.608 29.5493 231.608 30.7764C231.608 32.0597 231.888 33.2081 232.445 34.2233C233 35.2358 233.771 36.0348 234.756 36.6196C235.74 37.2056 236.847 37.4977 238.073 37.4977C239.272 37.4977 240.364 37.2056 241.349 36.6196C242.335 36.0348 243.111 35.229 243.683 34.2009C244.253 33.1728 244.539 32.0321 244.539 30.7764C244.539 29.5493 244.253 28.4274 243.683 27.4144C243.111 26.4014 242.335 25.6029 241.349 25.0165C240.364 24.4321 239.272 24.1394 238.073 24.1394V24.1394ZM252.247 19.0441H259.353L264.833 30.5624L270.312 19.0441H277.463L264.833 43.5347L252.247 19.0441ZM287.824 13.0077C287.824 13.978 287.481 14.7988 286.796 15.4706C286.111 16.1414 285.284 16.4764 284.313 16.4764C283.315 16.4764 282.464 16.1414 281.765 15.4706C281.067 14.7988 280.717 13.978 280.717 13.0077C280.717 12.066 281.067 11.2602 281.765 10.5894C282.464 9.91811 283.315 9.58317 284.313 9.58317C285.284 9.58317 286.111 9.91811 286.796 10.5894C287.481 11.2602 287.824 12.066 287.824 13.0077ZM281.103 19.002H287.524V42.5066H281.103V19.002ZM306.491 18.531C309.743 18.531 312.107 19.4009 313.576 21.1436C315.047 22.8837 315.781 25.3665 315.781 28.5925V42.5066H309.231V28.5925C309.231 25.4244 307.717 23.8405 304.693 23.8405C303.521 23.8405 302.467 24.3045 301.523 25.2305C300.581 26.1586 300.139 27.7649 300.196 30.0472V42.5066H293.817V18.9592H300.196V21.0566C300.967 20.2868 301.937 19.6733 303.107 19.216C304.279 18.7586 305.405 18.531 306.491 18.531V18.531ZM346.221 40.4092C346.221 43.8051 345.172 46.4816 343.075 48.4363C340.976 50.3905 338.059 51.3696 334.319 51.3696C329.837 51.3696 326.084 50.1847 323.06 47.816L326.185 43.2764C327.155 44.0483 328.304 44.6754 329.632 45.1613C330.959 45.6457 332.364 45.8889 333.848 45.8889C337.872 45.8889 339.885 44.0618 339.885 40.4092V40.0233C338.172 41.4222 335.975 42.1207 333.291 42.1207C330.808 42.1207 328.625 41.6009 326.74 40.5592C324.857 39.517 323.416 38.0962 322.417 36.2982C321.417 34.4998 320.917 32.517 320.917 30.3482C320.917 28.1504 321.417 26.1586 322.417 24.3758C323.416 22.5914 324.851 21.1701 326.72 20.1149C328.589 19.0597 330.781 18.531 333.291 18.531C335.975 18.531 338.172 19.2296 339.885 20.6285V18.9592H346.221V40.4092ZM333.676 36.7264C334.875 36.7264 335.968 36.4477 336.952 35.892C337.937 35.3362 338.715 34.5644 339.285 33.5805C339.856 32.5946 340.141 31.5176 340.141 30.3482C340.141 29.1482 339.856 28.0638 339.285 27.0936C338.715 26.1233 337.937 25.3602 336.952 24.804C335.968 24.2468 334.875 23.9681 333.676 23.9681C331.736 23.9681 330.173 24.5748 328.989 25.7884C327.805 27.002 327.212 28.5212 327.212 30.3482C327.212 32.231 327.789 33.766 328.947 34.9504C330.103 36.1353 331.68 36.7264 333.676 36.7264" fill="#E95644"/>
</g>
<defs>
<clipPath id="clip0">
<rect width="346.667" height="52" fill="white"/>
</clipPath>
</defs>
</svg>
